<svg xmlns="http://www.w3.org/2000/svg" viewBox="0 0 1280 640" fill="none">
  <!-- Background -->
  <rect width="1280" height="640" fill="#1a1a2e"/>

  <!-- Decorative large hexagons (background texture) -->
  <polygon points="160,80 240,126 240,218 160,264 80,218 80,126" fill="none" stroke="#f5a623" stroke-width="1.5" opacity="0.15"/>
  <polygon points="1120,376 1200,422 1200,514 1120,560 1040,514 1040,422" fill="none" stroke="#f5a623" stroke-width="1.5" opacity="0.15"/>
  <polygon points="1060,80 1120,114 1120,182 1060,216 1000,182 1000,114" fill="none" stroke="#f5a623" stroke-width="1" opacity="0.1"/>
  <polygon points="220,460 280,494 280,562 220,596 160,562 160,494" fill="none" stroke="#f5a623" stroke-width="1" opacity="0.1"/>

  <!-- Logo hexagon (large, centered-left) -->
  <polygon points="200,200 290,252 290,356 200,408 110,356 110,252" fill="#f5a623"/>
  <!-- Inner honeycomb cells -->
  <polygon points="200,232 224,246 224,274 200,288 176,274 176,246" fill="#1a1a2e"/>
  <polygon points="200,196 224,210 224,238 200,252 176,238 176,210" fill="#1a1a2e"/>
  <polygon points="200,268 224,282 224,310 200,324 176,310 176,282" fill="#1a1a2e"/>
  <polygon points="232,214 256,228 256,256 232,270 208,256 208,228" fill="#1a1a2e"/>
  <polygon points="232,250 256,264 256,292 232,306 208,292 208,264" fill="#1a1a2e"/>
  <polygon points="168,214 192,228 192,256 168,270 144,256 144,228" fill="#1a1a2e"/>
  <polygon points="168,250 192,264 192,292 168,306 144,292 144,264" fill="#1a1a2e"/>

  <!-- Wordmark -->
  <text x="340" y="340" font-family="system-ui, -apple-system, sans-serif" font-weight="700" font-size="96" fill="#ffffff" letter-spacing="-2">Hive</text>

  <!-- Tagline -->
  <text x="342" y="396" font-family="system-ui, -apple-system, sans-serif" font-weight="400" font-size="32" fill="#f5a623">Shared persistent memory for Claude agents</text>

  <!-- URL -->
  <text x="342" y="448" font-family="system-ui, -apple-system, sans-serif" font-size="24" fill="rgba(255,255,255,0.5)">hive.warlordofmars.net</text>
</svg>
